Coordinates
version=1
nRows=6
nColumns=46
inDegrees=yes

Units are S.I. units (second, meters, Newtons, ...)
Angles are in degrees.

endheader
time	pelvis_tilt	pelvis_list	pelvis_rotation	pelvis_tx	pelvis_ty	pelvis_tz	bb_angle	bb_tx	bb_ty	bb_tz	hip_flexion_r	hip_adduction_r	hip_rotation_r	knee_angle_r	knee_angle_r_beta	ankle_angle_r	subtalar_angle_r	mtp_angle_r	crank_angle_r	hip_flexion_l	hip_adduction_l	hip_rotation_l	knee_angle_l	knee_angle_l_beta	ankle_angle_l	subtalar_angle_l	mtp_angle_l	crank_angle_l	lumbar_extension	lumbar_bending	lumbar_rotation	arm_flex_r	arm_add_r	arm_rot_r	elbow_flex_r	pro_sup_r	wrist_flex_r	wrist_dev_r	arm_flex_l	arm_add_l	arm_rot_l	elbow_flex_l	pro_sup_l	wrist_flex_l	wrist_dev_l
      0.00500000	    -20.41226417	     -1.99379274	     -0.64065510	      0.14180863	      1.13481787	     -0.24297261	      0.00000000	      0.50000000	      0.00000000	      0.25000000	     75.03104170	     -6.30638790	     -4.70465770	    101.12286342	      1.76492692	      5.67297766	     -8.33940023	      0.00000000	      0.00000000	     69.27631665	     -6.16026453	      1.58534486	     58.60193567	      1.02279673	      2.19251095	     -3.65232291	      0.00000000	      0.00000000	    -49.47558453	      1.37192244	      3.67657996	     89.80208304	      1.37189379	     21.97136278	     30.26387110	     24.07172904	      0.00000000	      0.00000000	     89.75097922	      5.34188093	     24.59607501	     29.78546512	     23.99220278	      0.00000000	      0.00000000
      0.01000000	    -20.36747511	     -1.97314784	     -0.61539349	      0.14184962	      1.13490029	     -0.24309342	      0.00000000	      0.50000000	      0.00000000	      0.25000000	     74.99040270	     -6.36112083	     -4.70024766	    101.13771562	      1.76518614	      5.64640578	     -8.38354939	      0.00000000	      0.00000000	     69.20438921	     -6.10586607	      1.59681588	     58.57126086	      1.02226135	      2.16667126	     -3.71609048	      0.00000000	      0.00000000	    -49.47918448	      1.38717145	      3.68964846	     89.80432056	      0.76716797	     24.45586725	     31.01657389	     19.49466864	      0.00000000	      0.00000000	     89.75410719	      4.85426492	     26.93735685	     30.56208896	     19.37356209	      0.00000000	      0.00000000
      0.01500000	    -20.36895970	     -1.97576983	     -0.61845288	      0.14186125	      1.13485631	     -0.24310684	      0.00000000	      0.50000000	      0.00000000	      0.25000000	     75.00359395	     -6.36057621	     -4.70034497	    101.15531216	      1.76549325	      5.65352517	     -8.38905542	      0.00000000	      0.00000000	     69.19912122	     -6.10359187	      1.60674411	     58.56865573	      1.02221588	      2.15814819	     -3.73227238	      0.00000000	      0.00000000	    -49.46716336	      1.38588106	      3.69794498	     89.80458358	      0.75329803	     24.38400694	     30.56240988	     21.76269272	      0.00000000	      0.00000000	     89.75521288	      4.79787814	     27.09494091	     30.09277511	     21.70070410	      0.00000000	      0.00000000
      0.02000000	    -20.36273405	     -1.98306622	     -0.62661603	      0.14188802	      1.13492369	     -0.24310969	      0.00000000	      0.50000000	      0.00000000	      0.25000000	     75.00800867	     -6.35651019	     -4.70751296	    101.15575546	      1.76550099	      5.59815682	     -8.41445339	      0.00000000	      0.00000000	     69.17130477	     -6.11340586	      1.60311816	     58.53779250	      1.02167722	      2.13011942	     -3.77959495	      0.00000000	      0.00000000	    -49.50630074	      1.39661613	      3.71031192	     89.80358419	      1.08332270	     23.02679468	     30.33604186	     23.50449208	      0.00000000	      0.00000000	     89.75362895	      5.09223071	     25.76781166	     29.81715765	     23.44792598	      0.00000000	      0.00000000
      0.02500000	    -20.40531218	     -2.04332183	     -0.63664631	      0.14189544	      1.13468924	     -0.24306710	      0.00000000	      0.50000000	      0.00000000	      0.25000000	     75.06922800	     -6.30642380	     -4.74034319	    101.18011471	      1.76592614	      5.61208813	     -8.40886982	      0.00000000	      0.00000000	     69.22551723	     -6.14828954	      1.67592107	     58.55253670	      1.02193455	      2.19673103	     -3.71945690	      0.00000000	      0.00000000	    -49.46352541	      1.43694911	      3.78556992	     89.80322548	      1.16261699	     22.55977635	     30.22379205	     24.25136519	      0.00000000	      0.00000000	     89.75250721	      5.16758201	     25.40212591	     29.72949770	     24.23070842	      0.00000000	      0.00000000
      0.03000000	    -20.20578243	     -2.02510765	     -0.62903764	      0.14204893	      1.13524490	     -0.24313458	      0.00000000	      0.50000000	      0.00000000	      0.25000000	     74.82112939	     -6.34315798	     -4.76763953	    101.16148361	      1.76560097	      5.67412907	     -8.54621308	      0.00000000	      0.00000000	     68.97278343	     -6.15346563	      1.61102444	     58.52489063	      1.02145204	      2.20346139	     -3.76402135	      0.00000000	      0.00000000	    -49.80000070	      1.44477258	      3.81981540	     89.80263604	      1.06336219	     22.25525348	     30.71942277	     24.85519499	      0.00000000	      0.00000000	     89.74711423	      5.09843991	     25.10111121	     30.18049956	     24.83295749	      0.00000000	      0.00000000
